<?xml version="1.0" encoding="UTF-8" standalone="no"?>
<svg
   xmlns:dc="http://purl.org/dc/elements/1.1/"
   xmlns:cc="http://creativecommons.org/ns#"
   xmlns:rdf="http://www.w3.org/1999/02/22-rdf-syntax-ns#"
   xmlns:svg="http://www.w3.org/2000/svg"
   xmlns="http://www.w3.org/2000/svg"
   xmlns:sodipodi="http://sodipodi.sourceforge.net/DTD/sodipodi-0.dtd"
   xmlns:inkscape="http://www.inkscape.org/namespaces/inkscape"
   version="1.2"
   width="130.96mm"
   height="20.03mm"
   viewBox="5.6906 -0.0000 49.6805 7.6000"
   id="svg3097"
   inkscape:version="0.48.2 r9819"
   sodipodi:docname="Music_notation.svg">
  <metadata
     id="metadata3169">
    <rdf:RDF>
      <cc:Work
         rdf:about="">
        <dc:format>image/svg+xml</dc:format>
        <dc:type
           rdf:resource="http://purl.org/dc/dcmitype/StillImage" />
        <dc:title></dc:title>
      </cc:Work>
    </rdf:RDF>
  </metadata>
  <defs
     id="defs3167" />
  <sodipodi:namedview
     pagecolor="#ffffff"
     bordercolor="#666666"
     borderopacity="1"
     objecttolerance="10"
     gridtolerance="10"
     guidetolerance="10"
     inkscape:pageopacity="0"
     inkscape:pageshadow="2"
     inkscape:window-width="1436"
     inkscape:window-height="856"
     id="namedview3165"
     showgrid="false"
     inkscape:zoom="2.6105525"
     inkscape:cx="472.03907"
     inkscape:cy="15.399956"
     inkscape:window-x="46"
     inkscape:window-y="0"
     inkscape:window-maximized="0"
     inkscape:current-layer="svg3097" />
  <rect
     transform="translate(35.5496, 4.0000)"
     x="0.0000"
     y="-2.0390"
     width="0.1484"
     height="4.0781"
     ry="0.0000"
     fill="currentColor"
     id="rect3099" />
  <line
     x1="41.066055"
     y1="10.727854"
     x2="55.709068"
     y2="10.727854"
     id="line3101"
     inkscape:export-filename="/Users/mcbontempi/Documents/Code/Sparx/FirstSite2/FirstSite/assets/stave.png"
     inkscape:export-xdpi="1500"
     inkscape:export-ydpi="1500"
     style="stroke:currentColor;stroke-width:0.04243409;stroke-linecap:round;stroke-linejoin:round" />
  <line
     x1="41.066055"
     y1="9.7278538"
     x2="55.709068"
     y2="9.7278538"
     id="line3103"
     inkscape:export-filename="/Users/mcbontempi/Documents/Code/Sparx/FirstSite2/FirstSite/assets/stave.png"
     inkscape:export-xdpi="1500"
     inkscape:export-ydpi="1500"
     style="stroke:currentColor;stroke-width:0.04243409;stroke-linecap:round;stroke-linejoin:round" />
  <line
     x1="41.066055"
     y1="8.7278538"
     x2="55.709068"
     y2="8.7278538"
     id="line3105"
     inkscape:export-filename="/Users/mcbontempi/Documents/Code/Sparx/FirstSite2/FirstSite/assets/stave.png"
     inkscape:export-xdpi="1500"
     inkscape:export-ydpi="1500"
     style="stroke:currentColor;stroke-width:0.04243409;stroke-linecap:round;stroke-linejoin:round" />
  <line
     x1="41.066055"
     y1="7.7278533"
     x2="55.709068"
     y2="7.7278533"
     id="line3107"
     inkscape:export-filename="/Users/mcbontempi/Documents/Code/Sparx/FirstSite2/FirstSite/assets/stave.png"
     inkscape:export-xdpi="1500"
     inkscape:export-ydpi="1500"
     style="stroke:currentColor;stroke-width:0.04243409;stroke-linecap:round;stroke-linejoin:round" />
  <line
     x1="41.066055"
     y1="6.7278533"
     x2="55.709068"
     y2="6.7278533"
     id="line3109"
     inkscape:export-filename="/Users/mcbontempi/Documents/Code/Sparx/FirstSite2/FirstSite/assets/stave.png"
     inkscape:export-xdpi="1500"
     inkscape:export-ydpi="1500"
     style="stroke:currentColor;stroke-width:0.04243409;stroke-linecap:round;stroke-linejoin:round" />
  <rect
     transform="translate(0.0000, 7.0000)"
     x="28.8394"
     y="-0.0890"
     width="2.0746"
     height="0.1781"
     ry="0.0890"
     fill="currentColor"
     id="rect3111" />
  <rect
     transform="translate(22.2658, 4.0000)"
     x="0.0000"
     y="-2.0390"
     width="0.1484"
     height="4.0781"
     ry="0.0000"
     fill="currentColor"
     id="rect3113" />
  <rect
     transform="translate(54.5198, 4.0000)"
     x="0.0000"
     y="-2.0390"
     width="0.1484"
     height="4.0781"
     ry="0.0000"
     fill="currentColor"
     id="rect3115" />
  <rect
     transform="translate(54.9025, 4.0000)"
     x="0.0000"
     y="-2.0390"
     width="0.4686"
     height="4.0781"
     ry="0.0000"
     fill="currentColor"
     id="rect3117" />
  <path
     d="m 3.595113,4.5569215 c 0,0.408 -0.26,0.856 -0.76,0.992 0,0.052 0.004,0.108 0.004,0.16 0,0.184 -0.004,0.368 -0.016,0.552 -0.028,0.476 -0.368,0.908 -0.856,0.908 -0.444,0 -0.808,-0.368 -0.808,-0.82 0,-0.232 0.216,-0.416 0.452,-0.416 0.216,0 0.38,0.192 0.38,0.416 0,0.208 -0.172,0.38 -0.38,0.38 -0.052,0 -0.108,-0.016 -0.156,-0.04 0.104,0.188 0.296,0.32 0.52,0.32 0.4,0 0.664,-0.376 0.688,-0.772 0.012,-0.176 0.016,-0.356 0.016,-0.532 v -0.124 c -0.124,0.02 -0.252,0.024 -0.316,0.024 -0.756,0 -1.332,-0.692 -1.332,-1.488 0,-0.724 0.536,-1.256 1.016,-1.804 -0.148,-0.516 -0.216,-0.844 -0.216,-1.51600004 0,-0.788 0.588,-1.232 0.636,-1.232 0.1,0 0.604,0.876 0.604,1.55200004 0,0.6 -0.36,1.068 -0.76,1.52 0.088,0.292 0.168,0.588 0.244,0.884 h 0.024 c 0.616,0 1.016,0.508 1.016,1.036 z m -0.764,0.836 c 0.264,-0.08 0.496,-0.336 0.496,-0.68 0,-0.36 -0.256,-0.712 -0.672,-0.768 0.108,0.516 0.16,0.956 0.176,1.448 z m -0.456,0.052 c 0.028,0 0.18,-0.004 0.3,-0.02 -0.016,-0.508 -0.076,-0.964 -0.188,-1.488 -0.348,0.02 -0.544,0.248 -0.544,0.496 0,0.18 0.104,0.368 0.332,0.5 0.016,0.016 0.028,0.036 0.028,0.056 0,0.044 -0.036,0.084 -0.08,0.084 -0.06,0 -0.5,-0.252 -0.5,-0.744 0,-0.36 0.244,-0.712 0.672,-0.792 -0.064,-0.256 -0.14,-0.508 -0.212,-0.76 -0.44,0.496 -0.88,0.996 -0.88,1.656 0,0.596 0.576,1.012 1.072,1.012 z m 0.284,-5.31200004 c -0.4,0.22 -0.648,0.636 -0.648,1.09200004 0,0.376 0.108,0.76 0.16,0.944 0.344,-0.408 0.632,-0.836 0.632,-1.36800004 0,-0.308 -0.044,-0.44 -0.144,-0.668 z"
     id="path3119"
     inkscape:connector-curvature="0"
     style="fill:currentColor"
     inkscape:export-filename="/Users/mcbontempi/Documents/Code/Sparx/FirstSite2/FirstSite/assets/trebleclef.png"
     inkscape:export-xdpi="1499.3706"
     inkscape:export-ydpi="1499.3706" />
  <path
     transform="translate(50.6035, 6.0000) scale(0.0040, -0.0040)"
     d="M25 44l-1 -69c0 -4 -1 -7 -1 -11c0 -22 2 -44 4 -66c46 38 96 80 96 139c0 34 -14 69 -44 69c-31 0 -53 -29 -54 -62zM-14 -136l-11 599c8 4 16 7 25 7s17 -3 25 -7l-6 -349c26 19 56 30 88 30c53 0 93 -46 93 -100c0 -82 -90 -118 -153 -169c-14 -11 -22 -32 -40 -32 c-12 0 -21 9 -21 21z"
     fill="currentColor"
     id="path3121" />
  <rect
     transform="translate(53.0190, 4.0000)"
     x="-0.0508"
     y="-1.7990"
     width="0.1015"
     height="3.6007"
     ry="0.0267"
     fill="currentColor"
     id="rect3123" />
  <path
     transform="translate(51.7535, 6.0000) scale(0.0040, -0.0040)"
     d="M224 136c56 0 105 -28 105 -86c0 -90 -118 -186 -224 -186c-56 0 -105 28 -105 86c0 90 118 186 224 186z"
     fill="currentColor"
     id="path3125" />
  <path
     transform="translate(47.2335, 5.5000) scale(0.0040, -0.0040)"
     d="M215 -316c0 -9 -8 -17 -17 -17s-17 8 -17 17v151l-87 -31v-162c0 -9 -8 -17 -17 -17s-17 8 -17 17v150l-39 -13c-10 -4 -21 4 -21 15v64c0 7 5 13 11 15l49 18v164l-39 -14c-10 -4 -21 4 -21 15v65c0 7 5 13 11 15l49 17v163c0 9 8 17 17 17s17 -8 17 -17v-151l87 31v162 c0 9 8 17 17 17s17 -8 17 -17v-150l39 13c10 4 21 -4 21 -15v-64c0 -7 -5 -13 -11 -15l-49 -18v-164l39 14c10 4 21 -4 21 -15v-65c0 -7 -5 -13 -11 -15l-49 -17v-163zM181 97l-87 -30v-164l87 30v164z"
     fill="currentColor"
     id="path3127" />
  <rect
     transform="translate(49.9490, 4.0000)"
     x="-0.0508"
     y="-2.0000"
     width="0.1015"
     height="3.3017"
     ry="0.0267"
     fill="currentColor"
     id="rect3129" />
  <polygon
     transform="translate(49.8982, 1.9967)"
     stroke-linejoin="round"
     stroke-linecap="round"
     stroke-width="0.0533"
     fill="currentColor"
     stroke="currentColor"
     points="3.1449 -0.0057 3.1449 0.4209 0.0267 0.2133 0.0267 -0.2133"
     id="polygon3131" />
  <polygon
     transform="translate(49.8982, 2.7957)"
     stroke-linejoin="round"
     stroke-linecap="round"
     stroke-width="0.0533"
     fill="currentColor"
     stroke="currentColor"
     points="3.1449 -0.0057 3.1449 0.4209 0.0267 0.2133 0.0267 -0.2133"
     id="polygon3133" />
  <path
     transform="translate(48.6835, 5.5000) scale(0.0040, -0.0040)"
     d="M224 136c56 0 105 -28 105 -86c0 -90 -118 -186 -224 -186c-56 0 -105 28 -105 86c0 90 118 186 224 186z"
     fill="currentColor"
     id="path3135" />
  <path
     transform="translate(14.2611, 3.5000) scale(0.0040, -0.0040)"
     d="M217 114c-28 0 -71 -14 -71 -88c0 -103 89 -140 139 -140c28 0 70 14 70 88c0 103 -88 140 -138 140zM251 136c129 0 250 -55 250 -136s-121 -136 -250 -136s-251 55 -251 136s122 136 251 136z"
     fill="currentColor"
     id="path3137" />
  <path
     transform="translate(10.6906, 6.0031) scale(0.0040, -0.0040)"
     d="M228 487c36 0 64 14 71 14c10 0 16 -10 11 -16l-283 -333h173v147c0 42 43 4 90 116c4 9 20 7 20 -7v-256h68c9 0 13 -7 13 -14s-4 -13 -13 -13h-68v-16c0 -45 26 -88 68 -88c7 0 10 -5 10 -10s-3 -11 -10 -11c-41 0 -82 13 -123 13s-82 -13 -123 -13c-7 0 -10 6 -10 11 s3 10 10 10c42 0 68 43 68 88v16h-173c-21 0 -29 13 -29 21c0 14 148 150 148 339c0 8 5 15 12 15s35 -13 70 -13z"
     fill="currentColor"
     id="path3139" />
  <path
     transform="translate(10.6906, 4.0000) scale(0.0040, -0.0040)"
     d="M228 487c36 0 64 14 71 14c10 0 16 -10 11 -16l-283 -333h173v147c0 42 43 4 90 116c4 9 20 7 20 -7v-256h68c9 0 13 -7 13 -14s-4 -13 -13 -13h-68v-16c0 -45 26 -88 68 -88c7 0 10 -5 10 -10s-3 -11 -10 -11c-41 0 -82 13 -123 13s-82 -13 -123 -13c-7 0 -10 6 -10 11 s3 10 10 10c42 0 68 43 68 88v16h-173c-21 0 -29 13 -29 21c0 14 148 150 148 339c0 8 5 15 12 15s35 -13 70 -13z"
     fill="currentColor"
     id="path3141" />
  <path
     transform="translate(36.4480, 6.0031) scale(0.0040, -0.0040)"
     d="M228 487c36 0 64 14 71 14c10 0 16 -10 11 -16l-283 -333h173v147c0 42 43 4 90 116c4 9 20 7 20 -7v-256h68c9 0 13 -7 13 -14s-4 -13 -13 -13h-68v-16c0 -45 26 -88 68 -88c7 0 10 -5 10 -10s-3 -11 -10 -11c-41 0 -82 13 -123 13s-82 -13 -123 -13c-7 0 -10 6 -10 11 s3 10 10 10c42 0 68 43 68 88v16h-173c-21 0 -29 13 -29 21c0 14 148 150 148 339c0 8 5 15 12 15s35 -13 70 -13z"
     fill="currentColor"
     id="path3143" />
  <path
     transform="translate(36.5163, 4.0000) scale(0.0040, -0.0040)"
     d="M227 0c-90 0 -87 65 -144 65c-30 0 -59 -21 -62 -55c-1 -7 -5 -10 -10 -10s-11 3 -11 10c0 158 236 169 236 345c0 61 -22 124 -75 124c-25 0 -48 -14 -48 -37c0 -27 35 -41 35 -68c0 -38 -31 -69 -69 -69s-68 31 -68 69c0 75 71 126 150 126c95 0 184 -57 184 -145 c0 -158 -162 -160 -257 -229c12 3 24 5 37 5c83 0 109 -58 171 -58c46 0 36 36 52 36c5 0 11 -4 11 -10c0 -20 -40 -99 -132 -99z"
     fill="currentColor"
     id="path3145" />
  <path
     d="m 60.907279,7.3458823 c -0.224,0 -0.42,-0.112 -0.42,-0.344 0,-0.36 0.472,-0.7440004 0.896,-0.7440004 0.224,0 0.42,0.112 0.42,0.3440004 0,0.36 -0.472,0.744 -0.896,0.744 z"
     id="path3147"
     inkscape:export-filename="/Users/mcbontempi/Documents/Code/Sparx/FirstSite2/FirstSite/assets/indicator.png"
     inkscape:export-xdpi="1500"
     inkscape:export-ydpi="1500"
     inkscape:connector-curvature="0"
     style="fill:#ffb380" />
  <rect
     transform="translate(30.5175, 4.0000)"
     x="-0.0508"
     y="-0.5000"
     width="0.1015"
     height="3.2294"
     ry="0.0267"
     fill="currentColor"
     id="rect3149" />
  <path
     transform="translate(29.1852, 7.0000) scale(0.0040, -0.0040)"
     d="M318 67c0 24 -19 42 -43 42c-41 0 -210 -116 -236 -147c-7 -8 -11 -19 -11 -29c0 -24 19 -42 43 -42c41 0 210 116 236 147c7 8 11 19 11 29zM267 136c62 0 79 -33 79 -68c0 -34 -23 -116 -77 -152c-62 -42 -143 -52 -190 -52c-62 0 -79 33 -79 68c0 34 22 116 76 152 c62 42 144 52 191 52z"
     fill="currentColor"
     id="path3151" />
  <rect
     transform="translate(23.4815, 4.0000)"
     x="-0.0508"
     y="0.2706"
     width="0.1015"
     height="2.7294"
     ry="0.0267"
     fill="currentColor"
     id="rect3153" />
  <path
     transform="translate(23.4307, 4.0000) scale(0.0040, -0.0040)"
     d="M318 67c0 24 -19 42 -43 42c-41 0 -210 -116 -236 -147c-7 -8 -11 -19 -11 -29c0 -24 19 -42 43 -42c41 0 210 116 236 147c7 8 11 19 11 29zM267 136c62 0 79 -33 79 -68c0 -34 -23 -116 -77 -152c-62 -42 -143 -52 -190 -52c-62 0 -79 33 -79 68c0 34 22 116 76 152 c62 42 144 52 191 52z"
     fill="currentColor"
     id="path3155" />
  <path
     transform="translate(45.8940, 1.0267) scale(0.0040, -0.0040)"
     d="M-14 -250v250h14c0 -198 209 -336 209 -534c0 -71 -16 -142 -42 -208c-4 -7 -11 -11 -18 -11c-12 0 -24 10 -21 25c26 61 42 127 42 194c0 105 -97 209 -170 284h-14z"
     fill="currentColor"
     id="path3157" />
  <rect
     transform="translate(45.8432, 4.0000)"
     x="-0.0508"
     y="-3.0000"
     width="0.1015"
     height="3.3017"
     ry="0.0267"
     fill="currentColor"
     id="rect3159" />
  <path
     transform="translate(44.5777, 4.5000) scale(0.0040, -0.0040)"
     d="M224 136c56 0 105 -28 105 -86c0 -90 -118 -186 -224 -186c-56 0 -105 28 -105 86c0 90 118 186 224 186z"
     fill="currentColor"
     id="path3161" />
  <path
     id="path3171"
     d="m 33.027662,5.5 c -0.224,0 -0.42,-0.112 -0.42,-0.344 0,-0.36 0.472,-0.744 0.896,-0.744 0.224,0 0.42,0.112 0.42,0.344 0,0.36 -0.472,0.744 -0.896,0.744 z"
     inkscape:connector-curvature="0"
     style="fill:currentColor"
     inkscape:export-filename="/Users/mcbontempi/Documents/Code/Sparx/FirstSite2/FirstSite/assets/quarterup.png"
     inkscape:export-xdpi="1500"
     inkscape:export-ydpi="1500" />
  <rect
     id="rect3173"
     ry="0.026699999"
     height="3.3017001"
     width="0.1015"
     y="-4.7577"
     x="-33.923763"
     style="fill:currentColor"
     inkscape:export-filename="/Users/mcbontempi/Documents/Code/Sparx/FirstSite2/FirstSite/assets/quarterup.png"
     inkscape:export-xdpi="1500"
     inkscape:export-ydpi="1500"
     transform="scale(-1,-1)" />
  <g
     id="layer1"
     transform="matrix(0.1666707,0,0,0.1666707,35.397475,10.675211)"
     inkscape:export-filename="/Users/mcbontempi/Documents/Code/Sparx/FirstSite2/FirstSite/assets/lbassclef.png"
     inkscape:export-xdpi="1500"
     inkscape:export-ydpi="1500">
    <g
       id="g2883"
       style="fill:#000000;fill-opacity:1"
       transform="translate(-230.9546,-533.6597)">
      <path
         id="path2885"
         style="fill:#000000;fill-opacity:1"
         d="m 248.25999,536.802 c 0.008,0.36938 -0.14955,0.73865 -0.43121,0.97985 -0.36025,0.32891 -0.90945,0.39628 -1.3583,0.22886 -0.44485,-0.17177 -0.7737,-0.61188 -0.79903,-1.09011 -0.0338,-0.37371 0.0854,-0.76581 0.35602,-1.03193 0.2551,-0.27187 0.63497,-0.4047 1.004,-0.38222 0.37984,0.008 0.74658,0.19956 0.97342,0.50374 0.17473,0.22433 0.25749,0.50935 0.2551,0.79181 z"
         inkscape:connector-curvature="0" />
    </g>
    <g
       id="g2887"
       style="fill:#000000;fill-opacity:1"
       transform="translate(-230.9546,-533.6597)">
      <path
         id="path2889"
         style="fill:#000000;fill-opacity:1"
         d="m 248.25999,542.64502 c 0.008,0.36967 -0.14923,0.73944 -0.43121,0.98083 -0.36025,0.32891 -0.90945,0.39628 -1.3583,0.22887 -0.44511,-0.17184 -0.77393,-0.61235 -0.79903,-1.09083 -0.0349,-0.37399 0.0921,-0.76081 0.35555,-1.03089 0.24963,-0.27846 0.6336,-0.4051 1.00145,-0.3835 0.48385,0.0133 0.92314,0.34301 1.12317,0.77515 0.074,0.16275 0.10881,0.34192 0.10837,0.52037 z"
         inkscape:connector-curvature="0" />
    </g>
    <g
       id="g2891"
       style="fill:#000000;fill-opacity:1"
       transform="translate(-230.9546,-533.6597)">
      <path
         id="path2893"
         style="fill:#000000;fill-opacity:1"
         d="m 243.979,540.86798 c 0.045,2.8246 -1.2154,5.57017 -3.21431,7.53651 -2.48942,2.48828 -5.74678,4.07085 -9.06707,5.12812 -0.44172,0.23921 -1.10792,-0.0762 -0.41212,-0.40117 1.33796,-0.60855 2.72769,-1.13094 3.96014,-1.95064 2.72235,-1.6833 5.01959,-4.33406 5.57715,-7.56226 0.32492,-1.96502 0.23445,-4.01059 -0.25795,-5.94002 -0.36132,-1.41859 -1.34451,-2.88302 -2.90132,-3.09265 -1.41284,-0.21626 -2.91467,0.27318 -3.92295,1.29506 -0.26516,0.26874 -0.78141,1.0131 -0.69622,1.86654 0.60202,-0.47279 0.56093,-0.42015 1.05465,-0.6403 1.13673,-0.50686 2.64449,0.21388 2.928,1.46555 0.30209,1.15023 0.0685,2.61366 -1.06664,3.22688 -1.18524,0.64453 -2.93424,0.37778 -3.59586,-0.89094 -1.09534,-1.95448 -0.49303,-4.62673 1.27752,-5.98295 1.80312,-1.49647 4.43407,-1.55482 6.55761,-0.78709 2.18456,0.81249 3.48666,3.07621 3.69728,5.31832 0.0573,0.46798 0.0821,0.93974 0.0821,1.41104 z"
         inkscape:connector-curvature="0" />
    </g>
  </g>
</svg>
